<svg xmlns="http://www.w3.org/2000/svg" viewBox="0 0 24 24" fill="currentColor">
  <path d="M17.472 14.382c-.297-.149-1.758-.867-2.03-.967-.273-.099-.471-.148-.67.15-.197.297-.767.966-.94 1.164-.173.199-.347.223-.644.075-.297-.15-1.255-.463-2.39-1.475-.883-.788-1.48-1.761-1.653-2.059-.173-.297-.018-.458.13-.606.134-.133.298-.347.446-.52.149-.174.198-.298.298-.497.099-.198.05-.371-.025-.52-.075-.149-.669-1.612-.916-2.207-.242-.579-.487-.5-.669-.51-.173-.008-.371-.01-.57-.01-.198 0-.52.074-.792.372-.272.297-1.04 1.016-1.04 2.479 0 1.462 1.065 2.875 1.213 3.074.149.198 2.096 3.2 5.077 4.487.709.306 1.262.489 1.694.625.712.227 1.36.195 1.871.118.571-.085 1.758-.719 2.006-1.413.248-.694.248-1.289.173-1.413-.074-.124-.272-.198-.57-.347z"/>
  <path d="M12 0C5.373 0 0 5.373 0 12s5.373 12 12 12 12-5.373 12-12S18.627 0 12 0zm6.066 9.645c.183 4.04-2.83 8.544-8.164 8.544-1.622 0-3.131-.476-4.402-1.291 1.524.18 3.045-.244 4.252-1.189-1.256-.023-2.317-.854-2.684-1.995.451.086.895.061 1.298-.049-1.381-.278-2.335-1.522-2.304-2.853.388.215.83.344 1.301.359-1.279-.855-1.641-2.544-.889-3.835 1.416 1.738 3.533 2.881 5.92 3.001-.419-1.796.944-3.527 2.799-3.527.825 0 1.572.349 2.096.907.654-.128 1.27-.368 1.824-.697-.215.671-.67 1.233-1.263 1.589.581-.07 1.135-.224 1.649-.453-.384.578-.87 1.084-1.433 1.489z"/>
</svg> 